solid OpenSCAD_Model
  facet normal -0 0 -1
    outer loop
      vertex 18 5.29999 -1.2
      vertex 0 0 -1.2
      vertex 8 11 -1.2
    endloop
  endfacet
  facet normal 0 0 -1
    outer loop
      vertex 18 5.29999 -1.2
      vertex 30 5.29999 -1.2
      vertex 30 0 -1.2
    endloop
  endfacet
  facet normal 0 -0 -1
    outer loop
      vertex 18 5.29999 -1.2
      vertex 30 0 -1.2
      vertex 0 0 -1.2
    endloop
  endfacet
  facet normal 0 0 -1
    outer loop
      vertex 18 5.29999 -1.2
      vertex 8 11 -1.2
      vertex 18 11 -1.2
    endloop
  endfacet
  facet normal 0 0 -1
    outer loop
      vertex 8 11 -1.2
      vertex 0 17.2 -1.2
      vertex 8 17.2 -1.2
    endloop
  endfacet
  facet normal -0 0 -1
    outer loop
      vertex 8 11 -1.2
      vertex 0 0 -1.2
      vertex 0 17.2 -1.2
    endloop
  endfacet
  facet normal 0 0 1
    outer loop
      vertex 8 11 1.2
      vertex 0 0 1.2
      vertex 18 5.29999 1.2
    endloop
  endfacet
  facet normal 0 -0 1
    outer loop
      vertex 30 0 1.2
      vertex 30 5.29999 1.2
      vertex 18 5.29999 1.2
    endloop
  endfacet
  facet normal 0 0 1
    outer loop
      vertex 0 0 1.2
      vertex 30 0 1.2
      vertex 18 5.29999 1.2
    endloop
  endfacet
  facet normal 0 0 1
    outer loop
      vertex 18 11 1.2
      vertex 8 11 1.2
      vertex 18 5.29999 1.2
    endloop
  endfacet
  facet normal 0 0 1
    outer loop
      vertex 8 17.2 1.2
      vertex 0 17.2 1.2
      vertex 8 11 1.2
    endloop
  endfacet
  facet normal 0 0 1
    outer loop
      vertex 0 17.2 1.2
      vertex 0 0 1.2
      vertex 8 11 1.2
    endloop
  endfacet
  facet normal 0 1 0
    outer loop
      vertex 18 5.29999 -1.2
      vertex 30 5.29999 1.2
      vertex 30 5.29999 -1.2
    endloop
  endfacet
  facet normal 0 1 0
    outer loop
      vertex 18 5.29999 -1.2
      vertex 18 5.29999 1.2
      vertex 30 5.29999 1.2
    endloop
  endfacet
  facet normal 1 0 0
    outer loop
      vertex 18 11 -1.2
      vertex 18 5.29999 1.2
      vertex 18 5.29999 -1.2
    endloop
  endfacet
  facet normal 1 0 -0
    outer loop
      vertex 18 11 -1.2
      vertex 18 11 1.2
      vertex 18 5.29999 1.2
    endloop
  endfacet
  facet normal 0 1 0
    outer loop
      vertex 8 11 -1.2
      vertex 18 11 1.2
      vertex 18 11 -1.2
    endloop
  endfacet
  facet normal 0 1 0
    outer loop
      vertex 8 11 -1.2
      vertex 8 11 1.2
      vertex 18 11 1.2
    endloop
  endfacet
  facet normal 1 0 0
    outer loop
      vertex 8 17.2 -1.2
      vertex 8 11 1.2
      vertex 8 11 -1.2
    endloop
  endfacet
  facet normal 1 0 -0
    outer loop
      vertex 8 17.2 -1.2
      vertex 8 17.2 1.2
      vertex 8 11 1.2
    endloop
  endfacet
  facet normal 0 1 0
    outer loop
      vertex 0 17.2 -1.2
      vertex 8 17.2 1.2
      vertex 8 17.2 -1.2
    endloop
  endfacet
  facet normal 0 1 0
    outer loop
      vertex 0 17.2 -1.2
      vertex 0 17.2 1.2
      vertex 8 17.2 1.2
    endloop
  endfacet
  facet normal -1 0 0
    outer loop
      vertex 0 0 -1.2
      vertex 0 17.2 1.2
      vertex 0 17.2 -1.2
    endloop
  endfacet
  facet normal -1 0 0
    outer loop
      vertex 0 0 -1.2
      vertex 0 0 1.2
      vertex 0 17.2 1.2
    endloop
  endfacet
  facet normal 0 -1 0
    outer loop
      vertex 30 0 -1.2
      vertex 0 0 1.2
      vertex 0 0 -1.2
    endloop
  endfacet
  facet normal 0 -1 0
    outer loop
      vertex 30 0 -1.2
      vertex 30 0 1.2
      vertex 0 0 1.2
    endloop
  endfacet
  facet normal 1 0 0
    outer loop
      vertex 30 5.29999 -1.2
      vertex 30 0 1.2
      vertex 30 0 -1.2
    endloop
  endfacet
  facet normal 1 0 -0
    outer loop
      vertex 30 5.29999 -1.2
      vertex 30 5.29999 1.2
      vertex 30 0 1.2
    endloop
  endfacet
endsolid OpenSCAD_Model
