solid OpenSCAD_Model
  facet normal 1 0 0
    outer loop
      vertex 5 -4.45 5.85
      vertex 5 -4.8 4.65
      vertex 5 -4.45 4.7
    endloop
  endfacet
  facet normal 1 0 0
    outer loop
      vertex 5 -4.8 4.65
      vertex 5 -5.45 3.55
      vertex 5 -4.8 3.1
    endloop
  endfacet
  facet normal 1 -0 0
    outer loop
      vertex 5 -5.95 5.85
      vertex 5 -4.8 4.65
      vertex 5 -4.45 5.85
    endloop
  endfacet
  facet normal 1 0 0
    outer loop
      vertex 5 -5.95 3.55
      vertex 5 -4.8 4.65
      vertex 5 -5.95 5.85
    endloop
  endfacet
  facet normal 1 0 0
    outer loop
      vertex 5 -4.8 4.65
      vertex 5 -5.95 3.55
      vertex 5 -5.45 3.55
    endloop
  endfacet
  facet normal 1 -0 0
    outer loop
      vertex 5 -4.45 4.7
      vertex 5 -1.1 4.65
      vertex 5 -1.1 4.7
    endloop
  endfacet
  facet normal 1 0 0
    outer loop
      vertex 5 -1.1 4.65
      vertex 5 -4.45 4.7
      vertex 5 -4.8 4.65
    endloop
  endfacet
  facet normal 1 0 0
    outer loop
      vertex 5 -4.8 3.1
      vertex 5 -5.45 3.55
      vertex 5 -5.45 3.1
    endloop
  endfacet
  facet normal -0 0 1
    outer loop
      vertex -5 -1.1 4.7
      vertex 5 -4.45 4.7
      vertex 5 -1.1 4.7
    endloop
  endfacet
  facet normal 0 0 1
    outer loop
      vertex 5 -4.45 4.7
      vertex -5 -1.1 4.7
      vertex -5 -4.45 4.7
    endloop
  endfacet
  facet normal 0 0 -1
    outer loop
      vertex -5 -5.45 3.1
      vertex 5 -4.8 3.1
      vertex 5 -5.45 3.1
    endloop
  endfacet
  facet normal -0 0 -1
    outer loop
      vertex 5 -4.8 3.1
      vertex -5 -5.45 3.1
      vertex -5 -4.8 3.1
    endloop
  endfacet
  facet normal -1 0 0
    outer loop
      vertex -5 -5.45 3.55
      vertex -5 -4.8 3.1
      vertex -5 -5.45 3.1
    endloop
  endfacet
  facet normal -1 0 0
    outer loop
      vertex -5 -1.1 4.65
      vertex -5 -4.45 4.7
      vertex -5 -1.1 4.7
    endloop
  endfacet
  facet normal -1 0 0
    outer loop
      vertex -5 -4.8 4.65
      vertex -5 -4.45 4.7
      vertex -5 -1.1 4.65
    endloop
  endfacet
  facet normal -1 0 0
    outer loop
      vertex -5 -4.8 4.65
      vertex -5 -4.45 5.85
      vertex -5 -4.45 4.7
    endloop
  endfacet
  facet normal -1 0 0
    outer loop
      vertex -5 -4.8 3.1
      vertex -5 -5.45 3.55
      vertex -5 -4.8 4.65
    endloop
  endfacet
  facet normal -1 0 0
    outer loop
      vertex -5 -5.95 3.55
      vertex -5 -4.8 4.65
      vertex -5 -5.45 3.55
    endloop
  endfacet
  facet normal -1 -0 0
    outer loop
      vertex -5 -4.8 4.65
      vertex -5 -5.95 3.55
      vertex -5 -5.95 5.85
    endloop
  endfacet
  facet normal -1 0 0
    outer loop
      vertex -5 -4.8 4.65
      vertex -5 -5.95 5.85
      vertex -5 -4.45 5.85
    endloop
  endfacet
  facet normal 0 -1 0
    outer loop
      vertex -5 -5.45 3.1
      vertex 5 -5.45 3.55
      vertex -5 -5.45 3.55
    endloop
  endfacet
  facet normal 0 -1 -0
    outer loop
      vertex 5 -5.45 3.55
      vertex -5 -5.45 3.1
      vertex 5 -5.45 3.1
    endloop
  endfacet
  facet normal -0 0 1
    outer loop
      vertex -5 -4.45 5.85
      vertex 5 -5.95 5.85
      vertex 5 -4.45 5.85
    endloop
  endfacet
  facet normal 0 0 1
    outer loop
      vertex 5 -5.95 5.85
      vertex -5 -4.45 5.85
      vertex -5 -5.95 5.85
    endloop
  endfacet
  facet normal 0 0 -1
    outer loop
      vertex -5 -5.95 3.55
      vertex 5 -5.45 3.55
      vertex 5 -5.95 3.55
    endloop
  endfacet
  facet normal -0 0 -1
    outer loop
      vertex 5 -5.45 3.55
      vertex -5 -5.95 3.55
      vertex -5 -5.45 3.55
    endloop
  endfacet
  facet normal 0 1 -0
    outer loop
      vertex 5 -4.45 4.7
      vertex -5 -4.45 5.85
      vertex 5 -4.45 5.85
    endloop
  endfacet
  facet normal 0 1 0
    outer loop
      vertex -5 -4.45 5.85
      vertex 5 -4.45 4.7
      vertex -5 -4.45 4.7
    endloop
  endfacet
  facet normal 0 -1 0
    outer loop
      vertex -5 -5.95 3.55
      vertex 5 -5.95 5.85
      vertex -5 -5.95 5.85
    endloop
  endfacet
  facet normal 0 -1 -0
    outer loop
      vertex 5 -5.95 5.85
      vertex -5 -5.95 3.55
      vertex 5 -5.95 3.55
    endloop
  endfacet
  facet normal 1 0 0
    outer loop
      vertex 5 -5.45 -3.55
      vertex 5 -4.8 -3.1
      vertex 5 -5.45 -3.1
    endloop
  endfacet
  facet normal 1 0 0
    outer loop
      vertex 5 -1.1 -4.65
      vertex 5 -4.45 -4.7
      vertex 5 -1.1 -4.7
    endloop
  endfacet
  facet normal 1 -0 0
    outer loop
      vertex 5 -4.8 -4.65
      vertex 5 -4.45 -4.7
      vertex 5 -1.1 -4.65
    endloop
  endfacet
  facet normal 1 0 0
    outer loop
      vertex 5 -4.8 -4.65
      vertex 5 -4.45 -5.85
      vertex 5 -4.45 -4.7
    endloop
  endfacet
  facet normal 1 0 0
    outer loop
      vertex 5 -4.8 -3.1
      vertex 5 -5.45 -3.55
      vertex 5 -4.8 -4.65
    endloop
  endfacet
  facet normal 1 -0 0
    outer loop
      vertex 5 -5.95 -3.55
      vertex 5 -4.8 -4.65
      vertex 5 -5.45 -3.55
    endloop
  endfacet
  facet normal 1 0 0
    outer loop
      vertex 5 -4.8 -4.65
      vertex 5 -5.95 -3.55
      vertex 5 -5.95 -5.85
    endloop
  endfacet
  facet normal 1 0 0
    outer loop
      vertex 5 -4.8 -4.65
      vertex 5 -5.95 -5.85
      vertex 5 -4.45 -5.85
    endloop
  endfacet
  facet normal -0 0 1
    outer loop
      vertex -5 -4.8 -3.1
      vertex 5 -5.45 -3.1
      vertex 5 -4.8 -3.1
    endloop
  endfacet
  facet normal 0 0 1
    outer loop
      vertex 5 -5.45 -3.1
      vertex -5 -4.8 -3.1
      vertex -5 -5.45 -3.1
    endloop
  endfacet
  facet normal 0 0 -1
    outer loop
      vertex -5 -4.45 -4.7
      vertex 5 -1.1 -4.7
      vertex 5 -4.45 -4.7
    endloop
  endfacet
  facet normal -0 0 -1
    outer loop
      vertex 5 -1.1 -4.7
      vertex -5 -4.45 -4.7
      vertex -5 -1.1 -4.7
    endloop
  endfacet
  facet normal -1 0 0
    outer loop
      vertex -5 -4.45 -5.85
      vertex -5 -4.8 -4.65
      vertex -5 -4.45 -4.7
    endloop
  endfacet
  facet normal -1 0 0
    outer loop
      vertex -5 -4.8 -4.65
      vertex -5 -5.45 -3.55
      vertex -5 -4.8 -3.1
    endloop
  endfacet
  facet normal -1 0 0
    outer loop
      vertex -5 -5.95 -5.85
      vertex -5 -4.8 -4.65
      vertex -5 -4.45 -5.85
    endloop
  endfacet
  facet normal -1 0 0
    outer loop
      vertex -5 -5.95 -3.55
      vertex -5 -4.8 -4.65
      vertex -5 -5.95 -5.85
    endloop
  endfacet
  facet normal -1 0 0
    outer loop
      vertex -5 -4.8 -4.65
      vertex -5 -5.95 -3.55
      vertex -5 -5.45 -3.55
    endloop
  endfacet
  facet normal -1 0 0
    outer loop
      vertex -5 -4.45 -4.7
      vertex -5 -1.1 -4.65
      vertex -5 -1.1 -4.7
    endloop
  endfacet
  facet normal -1 -0 0
    outer loop
      vertex -5 -1.1 -4.65
      vertex -5 -4.45 -4.7
      vertex -5 -4.8 -4.65
    endloop
  endfacet
  facet normal -1 -0 0
    outer loop
      vertex -5 -4.8 -3.1
      vertex -5 -5.45 -3.55
      vertex -5 -5.45 -3.1
    endloop
  endfacet
  facet normal 0 -1 0
    outer loop
      vertex -5 -5.45 -3.55
      vertex 5 -5.45 -3.1
      vertex -5 -5.45 -3.1
    endloop
  endfacet
  facet normal 0 -1 -0
    outer loop
      vertex 5 -5.45 -3.1
      vertex -5 -5.45 -3.55
      vertex 5 -5.45 -3.55
    endloop
  endfacet
  facet normal -0 0 1
    outer loop
      vertex -5 -5.45 -3.55
      vertex 5 -5.95 -3.55
      vertex 5 -5.45 -3.55
    endloop
  endfacet
  facet normal 0 0 1
    outer loop
      vertex 5 -5.95 -3.55
      vertex -5 -5.45 -3.55
      vertex -5 -5.95 -3.55
    endloop
  endfacet
  facet normal 0 0 -1
    outer loop
      vertex -5 -5.95 -5.85
      vertex 5 -4.45 -5.85
      vertex 5 -5.95 -5.85
    endloop
  endfacet
  facet normal -0 0 -1
    outer loop
      vertex 5 -4.45 -5.85
      vertex -5 -5.95 -5.85
      vertex -5 -4.45 -5.85
    endloop
  endfacet
  facet normal 0 1 -0
    outer loop
      vertex 5 -4.45 -5.85
      vertex -5 -4.45 -4.7
      vertex 5 -4.45 -4.7
    endloop
  endfacet
  facet normal 0 1 0
    outer loop
      vertex -5 -4.45 -4.7
      vertex 5 -4.45 -5.85
      vertex -5 -4.45 -5.85
    endloop
  endfacet
  facet normal 0 -1 0
    outer loop
      vertex -5 -5.95 -5.85
      vertex 5 -5.95 -3.55
      vertex -5 -5.95 -3.55
    endloop
  endfacet
  facet normal 0 -1 -0
    outer loop
      vertex 5 -5.95 -3.55
      vertex -5 -5.95 -5.85
      vertex 5 -5.95 -5.85
    endloop
  endfacet
  facet normal 1 -0 0
    outer loop
      vertex 10.25 -1.1 6.25
      vertex 10.25 1.1 -6.25
      vertex 10.25 1.1 6.25
    endloop
  endfacet
  facet normal 1 0 0
    outer loop
      vertex 10.25 1.1 -6.25
      vertex 10.25 -1.1 6.25
      vertex 10.25 -1.1 -6.25
    endloop
  endfacet
  facet normal -0 0 1
    outer loop
      vertex -10.25 1.1 6.25
      vertex 10.25 -1.1 6.25
      vertex 10.25 1.1 6.25
    endloop
  endfacet
  facet normal 0 0 1
    outer loop
      vertex 10.25 -1.1 6.25
      vertex -10.25 1.1 6.25
      vertex -10.25 -1.1 6.25
    endloop
  endfacet
  facet normal 0 0 -1
    outer loop
      vertex -10.25 -1.1 -6.25
      vertex 10.25 1.1 -6.25
      vertex 10.25 -1.1 -6.25
    endloop
  endfacet
  facet normal -0 0 -1
    outer loop
      vertex 10.25 1.1 -6.25
      vertex -10.25 -1.1 -6.25
      vertex -10.25 1.1 -6.25
    endloop
  endfacet
  facet normal -1 0 0
    outer loop
      vertex -10.25 -1.1 -6.25
      vertex -10.25 1.1 6.25
      vertex -10.25 1.1 -6.25
    endloop
  endfacet
  facet normal -1 -0 0
    outer loop
      vertex -10.25 1.1 6.25
      vertex -10.25 -1.1 -6.25
      vertex -10.25 -1.1 6.25
    endloop
  endfacet
  facet normal 0 1 -0
    outer loop
      vertex 0.645 1.1 -0.625
      vertex -0.645 1.1 0.625
      vertex 0.645 1.1 0.625
    endloop
  endfacet
  facet normal 0 1 0
    outer loop
      vertex -0.645 1.1 0.625
      vertex 0.645 1.1 -0.625
      vertex -0.645 1.1 -0.625
    endloop
  endfacet
  facet normal 0 1 0
    outer loop
      vertex 0.645 1.1 0.625
      vertex 10.25 1.1 6.25
      vertex 1.895 1.1 0.625
    endloop
  endfacet
  facet normal 0 1 0
    outer loop
      vertex 10.25 1.1 6.25
      vertex 1.895 1.1 -0.625
      vertex 1.895 1.1 0.625
    endloop
  endfacet
  facet normal 0 1 0
    outer loop
      vertex 10.25 1.1 -6.25
      vertex 0.645 1.1 -0.625
      vertex 1.895 1.1 -0.625
    endloop
  endfacet
  facet normal 0 1 0
    outer loop
      vertex 0.645 1.1 -0.625
      vertex 10.25 1.1 -6.25
      vertex -0.645 1.1 -0.625
    endloop
  endfacet
  facet normal 0 1 0
    outer loop
      vertex -10.25 1.1 -6.25
      vertex -0.645 1.1 -0.625
      vertex 10.25 1.1 -6.25
    endloop
  endfacet
  facet normal 0 1 -0
    outer loop
      vertex 10.25 1.1 -6.25
      vertex 1.895 1.1 -0.625
      vertex 10.25 1.1 6.25
    endloop
  endfacet
  facet normal 0 1 0
    outer loop
      vertex 10.25 1.1 6.25
      vertex 0.645 1.1 0.625
      vertex -10.25 1.1 6.25
    endloop
  endfacet
  facet normal 0 1 -0
    outer loop
      vertex -0.645 1.1 0.625
      vertex -10.25 1.1 6.25
      vertex 0.645 1.1 0.625
    endloop
  endfacet
  facet normal 0 1 -0
    outer loop
      vertex -1.895 1.1 0.625
      vertex -10.25 1.1 6.25
      vertex -0.645 1.1 0.625
    endloop
  endfacet
  facet normal 0 1 -0
    outer loop
      vertex -1.895 1.1 -0.625
      vertex -10.25 1.1 6.25
      vertex -1.895 1.1 0.625
    endloop
  endfacet
  facet normal 0 1 0
    outer loop
      vertex -1.895 1.1 -0.625
      vertex -10.25 1.1 -6.25
      vertex -10.25 1.1 6.25
    endloop
  endfacet
  facet normal 0 1 0
    outer loop
      vertex -0.645 1.1 -0.625
      vertex -10.25 1.1 -6.25
      vertex -1.895 1.1 -0.625
    endloop
  endfacet
  facet normal 0 -1 0
    outer loop
      vertex 5 -1.1 -4.65
      vertex 5 -1.1 -4.7
      vertex 8.65 -1.1 -4.65
    endloop
  endfacet
  facet normal 0 -1 0
    outer loop
      vertex -10.25 -1.1 6.25
      vertex -5 -1.1 4.7
      vertex 10.25 -1.1 6.25
    endloop
  endfacet
  facet normal 0 -1 0
    outer loop
      vertex -10.25 -1.1 6.25
      vertex -8.65 -1.1 4.65
      vertex -5 -1.1 4.7
    endloop
  endfacet
  facet normal 0 -1 0
    outer loop
      vertex -10.25 -1.1 6.25
      vertex -8.65 -1.1 -4.65
      vertex -8.65 -1.1 4.65
    endloop
  endfacet
  facet normal 0 -1 0
    outer loop
      vertex -8.65 -1.1 -4.65
      vertex -5 -1.1 -4.7
      vertex -5 -1.1 -4.65
    endloop
  endfacet
  facet normal 0 -1 -0
    outer loop
      vertex -5 -1.1 -4.7
      vertex -10.25 -1.1 -6.25
      vertex 5 -1.1 -4.7
    endloop
  endfacet
  facet normal 0 -1 -0
    outer loop
      vertex -8.65 -1.1 -4.65
      vertex -10.25 -1.1 -6.25
      vertex -5 -1.1 -4.7
    endloop
  endfacet
  facet normal 0 -1 0
    outer loop
      vertex -10.25 -1.1 -6.25
      vertex -8.65 -1.1 -4.65
      vertex -10.25 -1.1 6.25
    endloop
  endfacet
  facet normal 0 -1 0
    outer loop
      vertex 5 -1.1 4.7
      vertex 10.25 -1.1 6.25
      vertex -5 -1.1 4.7
    endloop
  endfacet
  facet normal 0 -1 0
    outer loop
      vertex 8.65 -1.1 4.65
      vertex 5 -1.1 4.7
      vertex 5 -1.1 4.65
    endloop
  endfacet
  facet normal 0 -1 0
    outer loop
      vertex 5 -1.1 4.7
      vertex 8.65 -1.1 4.65
      vertex 10.25 -1.1 6.25
    endloop
  endfacet
  facet normal 0 -1 0
    outer loop
      vertex 8.65 -1.1 -4.65
      vertex 10.25 -1.1 6.25
      vertex 8.65 -1.1 4.65
    endloop
  endfacet
  facet normal 0 -1 0
    outer loop
      vertex 10.25 -1.1 -6.25
      vertex 5 -1.1 -4.7
      vertex -10.25 -1.1 -6.25
    endloop
  endfacet
  facet normal 0 -1 0
    outer loop
      vertex 8.65 -1.1 -4.65
      vertex 10.25 -1.1 -6.25
      vertex 10.25 -1.1 6.25
    endloop
  endfacet
  facet normal 0 -1 0
    outer loop
      vertex 5 -1.1 -4.7
      vertex 10.25 -1.1 -6.25
      vertex 8.65 -1.1 -4.65
    endloop
  endfacet
  facet normal 0 -1 -0
    outer loop
      vertex -5 -1.1 4.7
      vertex -8.65 -1.1 4.65
      vertex -5 -1.1 4.65
    endloop
  endfacet
  facet normal 1 -0 0
    outer loop
      vertex 8.65 -4.8 4.65
      vertex 8.65 -1.1 -4.65
      vertex 8.65 -1.1 4.65
    endloop
  endfacet
  facet normal 1 0 0
    outer loop
      vertex 8.65 -1.1 -4.65
      vertex 8.65 -4.8 4.65
      vertex 8.65 -4.8 -4.65
    endloop
  endfacet
  facet normal -0 0 1
    outer loop
      vertex -8.65 -1.1 4.65
      vertex -5 -4.8 4.65
      vertex -5 -1.1 4.65
    endloop
  endfacet
  facet normal 0 0 1
    outer loop
      vertex -5 -4.8 4.65
      vertex -8.65 -1.1 4.65
      vertex -8.65 -4.8 4.65
    endloop
  endfacet
  facet normal -0 0 1
    outer loop
      vertex 5 -1.1 4.65
      vertex 8.65 -4.8 4.65
      vertex 8.65 -1.1 4.65
    endloop
  endfacet
  facet normal 0 0 1
    outer loop
      vertex 8.65 -4.8 4.65
      vertex 5 -1.1 4.65
      vertex 5 -4.8 4.65
    endloop
  endfacet
  facet normal 0 0 -1
    outer loop
      vertex 5 -4.8 -4.65
      vertex 8.65 -1.1 -4.65
      vertex 8.65 -4.8 -4.65
    endloop
  endfacet
  facet normal -0 0 -1
    outer loop
      vertex 8.65 -1.1 -4.65
      vertex 5 -4.8 -4.65
      vertex 5 -1.1 -4.65
    endloop
  endfacet
  facet normal 0 0 -1
    outer loop
      vertex -8.65 -4.8 -4.65
      vertex -5 -1.1 -4.65
      vertex -5 -4.8 -4.65
    endloop
  endfacet
  facet normal -0 0 -1
    outer loop
      vertex -5 -1.1 -4.65
      vertex -8.65 -4.8 -4.65
      vertex -8.65 -1.1 -4.65
    endloop
  endfacet
  facet normal -1 0 0
    outer loop
      vertex -8.65 -4.8 -4.65
      vertex -8.65 -1.1 4.65
      vertex -8.65 -1.1 -4.65
    endloop
  endfacet
  facet normal -1 -0 0
    outer loop
      vertex -8.65 -1.1 4.65
      vertex -8.65 -4.8 -4.65
      vertex -8.65 -4.8 4.65
    endloop
  endfacet
  facet normal 0 -1 0
    outer loop
      vertex -0.645 -4.8 -0.625
      vertex 0.645 -4.8 0.625
      vertex -0.645 -4.8 0.625
    endloop
  endfacet
  facet normal 0 -1 -0
    outer loop
      vertex 0.645 -4.8 0.625
      vertex -0.645 -4.8 -0.625
      vertex 0.645 -4.8 -0.625
    endloop
  endfacet
  facet normal 0 -1 0
    outer loop
      vertex -8.65 -4.8 4.65
      vertex -5 -4.8 3.1
      vertex -5 -4.8 4.65
    endloop
  endfacet
  facet normal 0 -1 0
    outer loop
      vertex -0.645 -4.8 0.625
      vertex -5 -4.8 3.1
      vertex -1.895 -4.8 0.625
    endloop
  endfacet
  facet normal 0 -1 0
    outer loop
      vertex -5 -4.8 -3.1
      vertex -5 -4.8 3.1
      vertex -8.65 -4.8 4.65
    endloop
  endfacet
  facet normal 0 -1 0
    outer loop
      vertex -5 -4.8 3.1
      vertex -5 -4.8 -3.1
      vertex -1.895 -4.8 0.625
    endloop
  endfacet
  facet normal 0 -1 0
    outer loop
      vertex -5 -4.8 -3.1
      vertex -0.645 -4.8 -0.625
      vertex -1.895 -4.8 -0.625
    endloop
  endfacet
  facet normal 0 -1 -0
    outer loop
      vertex -0.645 -4.8 -0.625
      vertex -5 -4.8 -3.1
      vertex 0.645 -4.8 -0.625
    endloop
  endfacet
  facet normal 0 -1 0
    outer loop
      vertex 5 -4.8 -3.1
      vertex 0.645 -4.8 -0.625
      vertex -5 -4.8 -3.1
    endloop
  endfacet
  facet normal 0 -1 -0
    outer loop
      vertex -1.895 -4.8 0.625
      vertex -5 -4.8 -3.1
      vertex -1.895 -4.8 -0.625
    endloop
  endfacet
  facet normal 0 -1 0
    outer loop
      vertex -8.65 -4.8 -4.65
      vertex -5 -4.8 -3.1
      vertex -8.65 -4.8 4.65
    endloop
  endfacet
  facet normal 0 -1 -0
    outer loop
      vertex -5 -4.8 -3.1
      vertex -8.65 -4.8 -4.65
      vertex -5 -4.8 -4.65
    endloop
  endfacet
  facet normal 0 -1 0
    outer loop
      vertex 5 -4.8 3.1
      vertex 8.65 -4.8 4.65
      vertex 5 -4.8 4.65
    endloop
  endfacet
  facet normal 0 -1 0
    outer loop
      vertex -5 -4.8 3.1
      vertex -0.645 -4.8 0.625
      vertex 5 -4.8 3.1
    endloop
  endfacet
  facet normal 0 -1 0
    outer loop
      vertex 0.645 -4.8 0.625
      vertex 5 -4.8 3.1
      vertex -0.645 -4.8 0.625
    endloop
  endfacet
  facet normal 0 -1 0
    outer loop
      vertex 1.895 -4.8 0.625
      vertex 5 -4.8 3.1
      vertex 0.645 -4.8 0.625
    endloop
  endfacet
  facet normal 0 -1 0
    outer loop
      vertex 5 -4.8 -3.1
      vertex 5 -4.8 3.1
      vertex 1.895 -4.8 0.625
    endloop
  endfacet
  facet normal 0 -1 0
    outer loop
      vertex 5 -4.8 -3.1
      vertex 1.895 -4.8 0.625
      vertex 1.895 -4.8 -0.625
    endloop
  endfacet
  facet normal 0 -1 0
    outer loop
      vertex 0.645 -4.8 -0.625
      vertex 5 -4.8 -3.1
      vertex 1.895 -4.8 -0.625
    endloop
  endfacet
  facet normal 0 -1 0
    outer loop
      vertex 5 -4.8 3.1
      vertex 5 -4.8 -3.1
      vertex 8.65 -4.8 4.65
    endloop
  endfacet
  facet normal 0 -1 0
    outer loop
      vertex 8.65 -4.8 -4.65
      vertex 5 -4.8 -3.1
      vertex 5 -4.8 -4.65
    endloop
  endfacet
  facet normal 0 -1 0
    outer loop
      vertex 5 -4.8 -3.1
      vertex 8.65 -4.8 -4.65
      vertex 8.65 -4.8 4.65
    endloop
  endfacet
  facet normal -1 0 0
    outer loop
      vertex -0.645 -4.8 -0.625
      vertex -0.645 1.1 0.625
      vertex -0.645 1.1 -0.625
    endloop
  endfacet
  facet normal -1 -0 0
    outer loop
      vertex -0.645 1.1 0.625
      vertex -0.645 -4.8 -0.625
      vertex -0.645 -4.8 0.625
    endloop
  endfacet
  facet normal 0 0 -1
    outer loop
      vertex -1.895 -4.8 0.625
      vertex -0.645 1.1 0.625
      vertex -0.645 -4.8 0.625
    endloop
  endfacet
  facet normal -0 0 -1
    outer loop
      vertex -0.645 1.1 0.625
      vertex -1.895 -4.8 0.625
      vertex -1.895 1.1 0.625
    endloop
  endfacet
  facet normal -0 0 1
    outer loop
      vertex -1.895 1.1 -0.625
      vertex -0.645 -4.8 -0.625
      vertex -0.645 1.1 -0.625
    endloop
  endfacet
  facet normal 0 0 1
    outer loop
      vertex -0.645 -4.8 -0.625
      vertex -1.895 1.1 -0.625
      vertex -1.895 -4.8 -0.625
    endloop
  endfacet
  facet normal 1 -0 0
    outer loop
      vertex -1.895 -4.8 0.625
      vertex -1.895 1.1 -0.625
      vertex -1.895 1.1 0.625
    endloop
  endfacet
  facet normal 1 0 0
    outer loop
      vertex -1.895 1.1 -0.625
      vertex -1.895 -4.8 0.625
      vertex -1.895 -4.8 -0.625
    endloop
  endfacet
  facet normal -1 0 0
    outer loop
      vertex 1.895 -4.8 -0.625
      vertex 1.895 1.1 0.625
      vertex 1.895 1.1 -0.625
    endloop
  endfacet
  facet normal -1 -0 0
    outer loop
      vertex 1.895 1.1 0.625
      vertex 1.895 -4.8 -0.625
      vertex 1.895 -4.8 0.625
    endloop
  endfacet
  facet normal 0 0 -1
    outer loop
      vertex 0.645 -4.8 0.625
      vertex 1.895 1.1 0.625
      vertex 1.895 -4.8 0.625
    endloop
  endfacet
  facet normal -0 0 -1
    outer loop
      vertex 1.895 1.1 0.625
      vertex 0.645 -4.8 0.625
      vertex 0.645 1.1 0.625
    endloop
  endfacet
  facet normal -0 0 1
    outer loop
      vertex 0.645 1.1 -0.625
      vertex 1.895 -4.8 -0.625
      vertex 1.895 1.1 -0.625
    endloop
  endfacet
  facet normal 0 0 1
    outer loop
      vertex 1.895 -4.8 -0.625
      vertex 0.645 1.1 -0.625
      vertex 0.645 -4.8 -0.625
    endloop
  endfacet
  facet normal 1 -0 0
    outer loop
      vertex 0.645 -4.8 0.625
      vertex 0.645 1.1 -0.625
      vertex 0.645 1.1 0.625
    endloop
  endfacet
  facet normal 1 0 0
    outer loop
      vertex 0.645 1.1 -0.625
      vertex 0.645 -4.8 0.625
      vertex 0.645 -4.8 -0.625
    endloop
  endfacet
endsolid OpenSCAD_Model
